HIERARCHY
ROOT Hips
{
    OFFSET 12.590667724609375 94.30335998535156 -18.409942626953125
    CHANNELS 6 Xposition Yposition Zposition Zrotation Xrotation Yrotation
    JOINT RightUpLeg
    {
        OFFSET -12.590667724609375 0.0 0.0
        CHANNELS 3 Zrotation Xrotation Yrotation
        JOINT RightLeg
        {
            OFFSET 0.0 -48.27850341796875 0.0
            CHANNELS 3 Zrotation Xrotation Yrotation
            JOINT RightFoot
            {
                OFFSET 0.0 -46.02485656738281 0.0
                CHANNELS 3 Zrotation Xrotation Yrotation
                End Site
                {
                    OFFSET 0.0 0.0 18.409942626953125
                }
            }
        }
    }
    JOINT LeftUpLeg
    {
        OFFSET 12.590667724609375 0.0 0.0
        CHANNELS 3 Zrotation Xrotation Yrotation
        JOINT LeftLeg
        {
            OFFSET 0.0 -48.27850341796875 0.0
            CHANNELS 3 Zrotation Xrotation Yrotation
            JOINT LeftFoot
            {
                OFFSET 0.0 -46.02485656738281 0.0
                CHANNELS 3 Zrotation Xrotation Yrotation
                End Site
                {
                    OFFSET 0.0 0.0 18.409942626953125
                }
            }
        }
    }
    JOINT Spine
    {
        OFFSET 0.0 25.566783905029297 0.0
        CHANNELS 3 Zrotation Xrotation Yrotation
        JOINT Spine3
        {
            OFFSET 0.0 25.03233528137207 0.0
            CHANNELS 3 Zrotation Xrotation Yrotation
            JOINT Neck
            {
                OFFSET 0.0 11.12590217590332 0.0
                CHANNELS 3 Zrotation Xrotation Yrotation
                End Site
                {
                    OFFSET 0.0 4.450361251831055 0.0
                }
            }
            JOINT LeftArm
            {
                OFFSET 12.899383544921875 0.0 0.0
                CHANNELS 3 Zrotation Xrotation Yrotation
                JOINT LeftForeArm
                {
                    OFFSET 27.929668426513672 0.0 0.0
                    CHANNELS 3 Zrotation Xrotation Yrotation
                    JOINT LeftHand
                    {
                        OFFSET 18.92498016357422 0.0 0.0
                        CHANNELS 3 Zrotation Xrotation Yrotation
                        End Site
                        {
                            OFFSET 7.569991588592529 0.0 0.0
                        }
                    }
                }
            }
            JOINT RightArm
            {
                OFFSET -12.899383544921875 0.0 0.0
                CHANNELS 3 Zrotation Xrotation Yrotation
                JOINT RightForeArm
                {
                    OFFSET -27.929668426513672 0.0 0.0
                    CHANNELS 3 Zrotation Xrotation Yrotation
                    JOINT RightHand
                    {
                        OFFSET -18.92498016357422 0.0 0.0
                        CHANNELS 3 Zrotation Xrotation Yrotation
                        End Site
                        {
                            OFFSET -7.569991588592529 0.0 0.0
                        }
                    }
                }
            }
        }
    }
}
MOTION
Frames: 5
Frame Time: 0.03333333333333333
0.00013464904623106122 94.20318603515625 -0.00126914051361382 -8.352037803508384 -12.114863975044216 -24.379039132221845 2.5981708988285126 19.069898366878405 -1.9347203580509096 0.22919344966896948 11.749120048088189 -1.184910183235549 -3.975693351829394e-16 -3.180554681463516e-15 3.279947015259251e-15 4.633626205128951 17.11578212297797 -2.359161927013669 9.339662452435244 15.197208839064295 -4.571143840151845 -1.5902773407317584e-15 1.1034765745125397e-32 -7.951386703658792e-16 -6.9431822044910145 18.097910935264316 1.126757874901163 6.878523792006954e-07 4.82593227617449e-07 -7.03042657925921 1.9253105102696346 3.7447844977304148 -160.1284133228449 136.6918613549721 -51.170079125150444 -137.26333586429968 1.3136721073729452e-06 1.2556662172314332e-06 132.16077577498146 0.0 0.0 -6.361109362927033e-15 -121.47932944255159 -17.09075622578115 152.83865329853867 1.4796308171258888e-07 4.776304410675941e-06 -136.43150517090265 0.0 3.1805546814635176e-15 0.0
0.000135848400532268 94.20336151123047 -0.001315135508775711 -9.154071728151813 -12.573461429164924 -27.246214412433986 1.232914152074335 19.708987386994455 -1.6162210431067587 1.284647429749462 11.725009600586178 -1.1780423918895333 -6.896728590703373e-32 3.1805546814635168e-15 2.4848083448933726e-15 2.4025628918874515 17.74221945902334 -1.8288807173894848 11.534331349790936 17.589310774009476 -5.357174003237833 1.5902773407317582e-15 3.1805546814635164e-15 -4.4139062980501586e-32 -4.366381516996319 18.81944998372659 0.2585690271635332 2.3485928194516252e-07 3.1345961564912823e-07 -7.693412685938918 -1.3569500334202784 3.4788877499828432 -156.3403930632547 136.15799353979648 -49.22370319548363 -136.65126633079873 3.93573811176884e-06 -2.1961840407601273e-06 128.40221828267693 0.0 0.0 0.0 -122.63565795908917 -14.31887671088568 150.7146716683915 1.2533807056326526e-06 4.456262443735308e-06 -133.05980402207936 6.3611093629270335e-15 -3.1805546814635168e-15 1.7655625192200634e-31
0.00018081191228702664 94.20331573486328 -0.0012520267628133297 -9.848420975887201 -12.69602471501535 -29.4803785845947 0.7322002988051671 20.07044329358058 -1.544937222729801 1.0366737593632287 11.491546752935738 -1.0482376708999503 -1.034509288605506e-33 -9.939233379573489e-17 -1.1927080055488186e-15 1.1274607643157475 17.684792894882424 -1.496488202865727 12.944063635174974 20.26513653773163 -6.284172489294762 -3.1805546814635164e-15 3.975693351829395e-15 -1.590277340731758e-15 -1.8784632897265374 19.13005257757683 -0.6218299539640105 1.9918861679248292e-07 1.1662333292780789e-07 -8.282774263877508 -3.313872299637796 4.179147021533581 -153.1230792313155 135.66368873816208 -48.04327603390631 -135.07075175404486 1.4614858208179095e-06 -1.8939210250414207e-06 125.3527777956226 0.0 0.0 6.3611093629270335e-15 -122.63028754613968 -11.458369934636918 149.21053061823662 -1.193376927223655e-07 1.1638698354495826e-06 -129.46741124285623 0.0 3.578124016646457e-15 0.0
0.0001745934278005734 94.20305633544922 -0.0011431551538407803 -10.166491450128788 -12.332665891834829 -30.23535229405528 0.29265519948746455 19.780103562674057 -1.3582840733512702 1.5183431178140283 11.419430540046616 -1.0480561507333879 -3.9756933518293955e-16 -9.939233379573489e-17 8.448348372637465e-16 0.2786845107237012 17.412456364000327 -1.2035945475770744 14.071165283911135 21.231311797692026 -6.67710543505328 1.3793457181406746e-32 -7.951386703658792e-16 1.987846675914698e-15 0.9845312853962036 19.21825765765838 -1.5540166038137682 -8.377134546159182e-08 4.75338274893279e-07 -8.2137707083165 -4.6761737461228305 5.124770446024021 -153.92737347594147 134.65727370025496 -46.01555448726313 -133.7400244556541 3.2554631135310743e-06 1.3612765768315462e-06 124.13116970930469 -3.531125038440127e-31 -6.3611093629270335e-15 -6.3611093629270335e-15 -122.67129760605043 -8.98503380114159 147.4752758852936 9.338919716416204e-08 -4.372655759580064e-07 -126.2741955957394 -1.9862578341225716e-31 -3.578124016646457e-15 -6.3611093629270335e-15
8.536826499039307e-05 94.20274353027344 -0.0010135547490790486 -10.624884271131666 -11.818219760362215 -30.81511133719516 -0.01296637113370606 19.42280441757001 -1.038162776499198 2.028639754641065 11.52607135389323 -0.9930796702642074 -3.975693351829396e-16 9.93923337957349e-17 2.981770013872047e-16 0.4992185521117343 16.93084313991134 -1.0633171829530061 13.612729900806892 21.32180502160107 -6.388456887707147 -1.5902773407317584e-15 7.951386703658791e-16 4.770832022195275e-15 4.144137673724486 19.46598250302488 -2.4393676909758173 4.155236029957602e-08 -8.012951055735866e-08 -8.019778625529812 -6.317614505197293 5.486915992143323 -155.98693220775803 133.69247609558343 -44.03505453319745 -129.8215054564747 2.3023970012739756e-06 8.950316685160616e-07 121.88671666317299 0.0 0.0 0.0 -122.89518126652037 -9.475523797412917 146.13526424138155 -2.0156330609537055e-07 9.603704818365754e-07 -124.25189521853497 -1.7655625192200634e-31 -3.1805546814635168e-15 -6.3611093629270335e-15
